<svg width="170" height="170" viewBox="0 0 170 170" fill="none" xmlns="http://www.w3.org/2000/svg">
<circle cx="85" cy="85" r="84.5" stroke="white"/>
<circle cx="84.7165" cy="84.7163" r="74.3" fill="white" stroke="white"/>
<path d="M125.408 61.924L88.3533 44.0356C88.0248 43.8771 87.6422 43.8771 87.3139 44.0356L50.2592 61.924C49.846 62.1234 49.5835 62.5418 49.5835 63.0005V106.444C49.5835 106.903 49.846 107.321 50.2592 107.52L87.3137 125.409C87.4779 125.488 87.6558 125.528 87.8335 125.528C88.0112 125.528 88.1889 125.488 88.3533 125.409L125.408 107.52C125.821 107.321 126.083 106.903 126.083 106.444V63.0007C126.083 62.5416 125.821 62.1235 125.408 61.924ZM87.8335 46.4398L122.138 63.0005L112.194 67.8012C112.131 67.7533 112.065 67.709 111.992 67.6737L77.9198 51.2256L87.8335 46.4398ZM75.22 52.5773L109.475 69.114L102.459 72.501L68.2184 55.971L75.22 52.5773ZM110.276 71.3819V83.9019L103.723 87.0655V74.5456L110.276 71.3819ZM123.693 105.694L89.029 122.427V81.6392L97.2973 77.6476C97.8919 77.3605 98.1412 76.646 97.8541 76.0513C97.567 75.4569 96.8525 75.2073 96.2578 75.4945L87.8335 79.5615L84.5187 77.9612C83.924 77.6738 83.2094 77.9234 82.9223 78.5179C82.6353 79.1125 82.8846 79.8272 83.4791 80.1143L86.638 81.6392V122.427L51.9744 105.693V64.9052L78.3705 77.6481C78.538 77.7291 78.7151 77.7673 78.8893 77.7673C79.3337 77.7673 79.7606 77.5184 79.9667 77.0913C80.2537 76.4968 80.0044 75.782 79.4099 75.495L53.5287 63.0005L65.4045 57.2674L101.316 74.6038C101.321 74.6111 101.327 74.6177 101.332 74.6248V88.9703C101.332 89.3817 101.544 89.7641 101.892 89.983C102.086 90.1044 102.306 90.1658 102.528 90.1658C102.705 90.1658 102.883 90.1264 103.047 90.0469L111.992 85.729C112.405 85.5296 112.667 85.1114 112.667 84.6525V70.2279L123.693 64.9053V105.694Z" fill="#062B4A" stroke="#062B4A" stroke-width="0.2"/>
<path d="M61.8379 101.056L56.4001 98.4306C55.8052 98.1432 55.0908 98.3928 54.8038 98.9874C54.5167 99.5819 54.766 100.297 55.3605 100.584L60.7983 103.209C60.9659 103.29 61.143 103.328 61.3172 103.328C61.7616 103.328 62.1884 103.079 62.3945 102.652C62.6818 102.057 62.4325 101.343 61.8379 101.056Z" fill="#062B4A" stroke="#062B4A" stroke-width="0.2"/>
<path d="M66.8417 97.7986L56.4068 92.761C55.8121 92.474 55.0976 92.7233 54.8105 93.318C54.5236 93.9125 54.7729 94.6272 55.3674 94.9143L65.8023 99.9519C65.9698 100.033 66.1469 100.071 66.3211 100.071C66.7655 100.071 67.1924 99.8221 67.3985 99.3951C67.6856 98.8002 67.4363 98.0855 66.8417 97.7986Z" fill="#062B4A" stroke="#062B4A" stroke-width="0.2"/>
</svg>
