<svg width="170" height="170" viewBox="0 0 170 170" fill="none" xmlns="http://www.w3.org/2000/svg">
<circle cx="85" cy="85" r="84.5" stroke="white"/>
<circle cx="85.0002" cy="84.9999" r="74.3" fill="white" stroke="white"/>
<g clip-path="url(#clip0)">
<path d="M122.4 79.6807H119.628L115.495 81.8551C115.03 81.5984 114.547 81.3809 114.025 81.2502L108.827 79.9494V79.3584C111.126 77.7534 112.529 75.1019 112.529 72.2775V70.1207C112.529 65.3274 108.774 61.3161 104.157 61.1763C103.923 61.1703 103.692 61.1787 103.46 61.1902L104.808 58.035L98.2742 51.5029L94.4226 54.0098C92.9592 53.1857 91.4114 52.544 89.804 52.094L88.8527 47.6001H79.4493L78.498 52.0952C76.8906 52.5452 75.3416 53.1869 73.8794 54.011L70.0278 51.5041L63.4993 58.0326L64.8242 61.1902C64.7736 61.1877 64.7254 61.1787 64.6747 61.1775C62.3118 61.1088 60.0863 61.971 58.3957 63.6121C56.7028 65.252 55.7714 67.4529 55.7714 69.8098V72.2775C55.7714 75.1019 57.1733 77.7522 59.473 79.3572V79.9494L56.0822 80.7971L49.9364 77.213H45.9004V102.78L58.0391 106.826H60.4032L60.6984 105.792L64.4193 108.025C64.4802 110.049 66.1026 111.676 68.1239 111.748C68.195 113.76 69.8127 115.378 71.8255 115.449C71.8966 117.462 73.5143 119.08 75.5272 119.151C75.6007 121.211 77.2876 122.866 79.3643 122.866C80.1355 122.866 80.8916 122.626 81.5272 122.197L82.6201 123.163C83.3051 123.766 84.1871 124.1 85.1029 124.1H85.3312C87.3845 124.1 89.0551 122.44 89.0811 120.394C91.112 120.368 92.7568 118.723 92.7827 116.692C94.8148 116.666 96.4608 115.019 96.4843 112.987C98.5351 112.939 100.191 111.263 100.191 109.201C100.191 109.077 100.185 108.954 100.172 108.831L122.4 97.7177V79.6807ZM110.062 70.1207V72.2775C110.062 74.4675 108.878 76.5135 106.973 77.6167L106.356 77.9733L106.361 81.878L112.526 83.4179L98.9568 90.5597V87.2358C98.9568 85.5772 98.2869 84.0583 97.1898 82.9359L101.425 81.878V77.9703L100.809 77.6143C98.905 76.5135 97.723 74.4675 97.723 72.2775V69.8098C97.723 68.1271 98.3881 66.5534 99.5973 65.3816C100.805 64.2104 102.408 63.579 104.083 63.644C107.379 63.7428 110.062 66.6486 110.062 70.1207ZM86.0108 89.5897L80.4253 87.8045C77.8798 86.9888 75.1247 86.8671 72.519 87.4442L71.8117 87.6009V87.2358C71.8117 85.5344 72.9654 84.0571 74.615 83.6438L81.6826 81.878V77.9703L81.0669 77.6143C79.1631 76.5135 77.981 74.4675 77.981 72.2775V69.8098C77.981 68.1271 78.6462 66.5534 79.8553 65.3816C81.0633 64.2104 82.6761 63.579 84.3414 63.644C87.6375 63.7428 90.3197 66.6486 90.3197 70.1207V72.2775C90.3197 74.4675 89.1365 76.5135 87.2315 77.6167L86.6145 77.9733L86.6193 81.878L93.6858 83.6438C95.3354 84.0571 96.4891 85.5344 96.4891 87.2358V91.8592L96.1842 92.0195H95.4281L87.8424 89.8517C87.2447 89.6824 86.629 89.6132 86.0108 89.5897ZM72.0882 66.0672C74.4053 61.5775 79.0691 58.7049 84.1504 58.7049C89.1835 58.7049 93.8274 61.539 96.162 65.9678C95.5745 67.1456 95.2552 68.45 95.2552 69.8098V72.2775C95.2552 75.1019 96.6572 77.7522 98.9568 79.3572V79.9494L94.0214 81.1851L89.0847 79.9494V79.3584C91.3843 77.7534 92.7875 75.1019 92.7875 72.2775V70.1207C92.7875 65.3274 89.0317 61.3161 84.4155 61.1763C82.0538 61.107 79.827 61.9698 78.1365 63.6109C76.4447 65.252 75.5133 67.4529 75.5133 69.8098V72.2775C75.5133 75.1019 76.9153 77.7522 79.2149 79.3572V79.9494L74.2794 81.1851L69.3427 79.9494V79.3584C71.6424 77.7534 73.0456 75.1019 73.0456 72.2775V70.1207C73.0456 68.6687 72.6961 67.2902 72.0882 66.0672ZM66.4135 58.6049L70.3555 54.6629L73.8252 56.921L74.4891 56.5137C76.1525 55.4943 77.9503 54.7479 79.8318 54.2978L80.591 54.1159L81.4495 50.0678H86.8525L87.7086 54.1147L88.4677 54.296C90.3493 54.7467 92.1471 55.4931 93.8105 56.5125L94.4744 56.9198L97.9441 54.6617L101.881 58.6001L100.482 61.877C99.5292 62.2867 98.646 62.8632 97.8772 63.6085C97.8266 63.6579 97.7832 63.7109 97.7338 63.7615C94.8269 59.1405 89.6877 56.2372 84.1504 56.2372C78.5733 56.2372 73.4197 59.1676 70.52 63.8356C69.744 63.0235 68.821 62.3656 67.798 61.9059L66.4135 58.6049ZM61.9407 81.878V77.9703L61.325 77.6143C59.4212 76.5135 58.2391 74.4675 58.2391 72.2775V69.8098C58.2391 68.1271 58.9042 66.5534 60.1134 65.3816C61.3214 64.2104 62.9276 63.579 64.5994 63.644C67.8956 63.7428 70.5778 66.6486 70.5778 70.1207V72.2775C70.5778 74.4675 69.3945 76.5135 67.4895 77.6167L66.8726 77.9733L66.8774 81.878L71.111 82.9359C70.0139 84.0583 69.3439 85.5772 69.3439 87.2358V88.1497L65.4953 89.0053L65.5953 88.6558L65.6423 86.3755L59.135 82.5793L61.9407 81.878ZM48.3681 79.6807H49.2676L58.1415 84.8566L53.6639 102.766L48.3681 101.001V79.6807ZM58.4391 104.358L56.0105 103.549L60.3604 86.1513L63.1746 87.7925V88.1449L58.5427 104.358H58.4391ZM66.8762 107.91C66.8762 107.546 67.0232 107.19 67.2811 106.932L69.45 104.763C69.7078 104.505 70.0645 104.358 70.4284 104.358C71.1911 104.358 71.8117 104.979 71.8117 105.741C71.8117 106.105 71.6647 106.462 71.4068 106.72L69.2379 108.889C68.98 109.147 68.6234 109.294 68.2595 109.294C67.4967 109.294 66.8762 108.673 66.8762 107.91ZM70.5778 111.612C70.5778 111.248 70.7248 110.891 70.9827 110.634L73.1516 108.465C73.4094 108.207 73.7661 108.06 74.13 108.06C74.8927 108.06 75.5133 108.68 75.5133 109.443C75.5133 109.807 75.3663 110.164 75.1084 110.421L72.9395 112.59C72.6817 112.848 72.325 112.995 71.9611 112.995C71.1984 112.995 70.5778 112.375 70.5778 111.612ZM74.2794 115.314C74.2794 114.95 74.4264 114.593 74.6843 114.335L76.8532 112.166C77.1111 111.908 77.4677 111.761 77.8316 111.761C78.5944 111.761 79.2149 112.382 79.2149 113.145C79.2149 113.509 79.0679 113.865 78.81 114.123L76.6411 116.292C76.3833 116.55 76.0266 116.697 75.6627 116.697C74.9 116.697 74.2794 116.076 74.2794 115.314ZM79.3643 120.398C78.6016 120.398 77.981 119.778 77.981 119.015C77.981 118.651 78.128 118.295 78.3859 118.037L80.5548 115.868C80.8127 115.61 81.1693 115.463 81.5332 115.463C82.296 115.463 82.9165 116.084 82.9165 116.846C82.9165 117.21 82.7695 117.567 82.5117 117.825L80.3427 119.994C80.0849 120.251 79.7282 120.398 79.3643 120.398ZM85.3312 121.632H85.1029C84.7884 121.632 84.4872 121.518 84.2528 121.31L83.3298 120.496L84.2564 119.569C84.5872 119.239 84.8438 118.845 85.0336 118.423L86.1554 119.357C86.4488 119.601 86.6181 119.962 86.6181 120.345C86.6181 121.055 86.041 121.632 85.3312 121.632ZM96.3963 110.528H96.183C95.8734 110.528 95.5709 110.418 95.3342 110.219L88.6431 104.643L87.0622 106.54L93.5599 111.954C93.8521 112.198 94.0214 112.558 94.0214 112.942C94.0214 113.652 93.4442 114.229 92.7345 114.229H92.4652C92.1657 114.229 91.8729 114.123 91.6422 113.93L84.9402 108.346L83.3593 110.243L89.857 115.657C90.1505 115.9 90.3197 116.26 90.3197 116.644C90.3197 117.354 89.7426 117.931 89.0329 117.931C88.5593 117.931 88.0978 117.763 87.7345 117.461L84.9806 115.165C84.3739 113.925 83.1274 113.061 81.6676 113.009C81.5965 110.996 79.9788 109.379 77.966 109.308C77.8949 107.295 76.2772 105.677 74.2644 105.606C74.1921 103.546 72.5051 101.89 70.4284 101.89C69.4144 101.89 68.4222 102.301 67.7052 103.018L65.5363 105.187C65.4068 105.317 65.2995 105.464 65.1905 105.61L61.4003 103.335L64.7229 91.7062L73.0528 89.8542C75.238 89.3655 77.5418 89.4716 79.6728 90.1536L81.4905 90.735L75.3283 93.816C73.9203 94.5215 73.0456 95.938 73.0456 97.5128V97.7568C73.0456 100.036 74.9 101.89 77.1791 101.89C77.928 101.89 78.6648 101.687 79.3053 101.301L83.8998 98.5455C84.8228 97.9924 86.0614 98.1135 86.8585 98.8304L97.2838 108.213C97.5627 108.466 97.723 108.825 97.723 109.201C97.723 109.933 97.1283 110.528 96.3963 110.528ZM119.933 96.1922L99.1454 106.587C99.0779 106.515 99.0075 106.447 98.9333 106.381L88.5099 96.9983C87.5966 96.1741 86.4157 95.7211 85.1854 95.7211C84.2859 95.7211 83.4027 95.9657 82.6291 96.4296L78.0328 99.1859C77.775 99.3413 77.4804 99.4227 77.1791 99.4227C76.2598 99.4227 75.5133 98.6762 75.5133 97.7568V97.5128C75.5133 96.8772 75.8663 96.3073 76.4339 96.0235L83.3166 92.5822C84.4944 91.9923 85.8928 91.8604 87.1622 92.2255L94.916 94.4402L96.794 94.4872L119.933 82.3087V96.1922Z" fill="#062B4A"/>
</g>
<defs>
<clipPath id="clip0">
<rect width="76.5" height="76.5" fill="white" transform="translate(45.9004 47.6001)"/>
</clipPath>
</defs>
</svg>
