<svg width="170" height="170" viewBox="0 0 170 170" fill="none" xmlns="http://www.w3.org/2000/svg">
<circle cx="85" cy="85" r="84.5" stroke="white"/>
<circle cx="85.0007" cy="84.9997" r="74.8" fill="white"/>
<path d="M117.63 107.175V103.374C117.63 96.9408 113.829 91.2391 107.981 88.6074L95.1151 82.9057C97.3081 80.5665 98.6239 77.3501 98.6239 74.1337L102.133 72.3792C103.595 71.6483 104.618 70.1863 104.618 68.4319V67.4085C104.618 64.923 102.717 63.0224 100.232 63.0224H98.7701V52.7884C98.7701 48.6948 95.5537 45.4784 91.4601 45.4784H90.7291C88.8285 45.4784 86.9279 44.7474 85.6121 43.2854L83.1267 40.8L74.7933 43.5778C73.7699 43.8702 72.7465 44.455 71.8693 45.0398L70.6997 45.917C67.9219 47.9638 66.4599 51.034 66.4599 54.2504V63.0224H64.9979C62.5125 63.0224 60.6119 64.923 60.6119 67.4085V68.578C60.6119 70.1862 61.4891 71.7945 63.0973 72.5254L66.6061 74.2799C66.6061 77.4963 67.9219 80.5665 70.1149 83.0519L57.2493 88.7536C51.4013 91.3852 47.6001 97.0871 47.6001 103.52V128.812H116.314C118.799 128.812 120.7 126.912 120.7 124.426V111.268C120.554 109.368 119.384 107.76 117.63 107.175ZM98.6239 65.9464H100.086C100.963 65.9464 101.548 66.5312 101.548 67.4085V68.578C101.548 69.1628 101.256 69.6015 100.671 69.8939L98.6239 70.9172V65.9464ZM66.4599 70.9172L64.4131 69.8939C63.9745 69.6015 63.5359 69.1628 63.5359 68.578V67.4085C63.5359 66.5312 64.1207 65.9464 64.9979 65.9464H66.4599V70.9172ZM99.3549 88.0226L92.6297 94.7479L85.7583 88.8999C86.4893 88.6075 87.0741 88.315 87.6589 88.0226L92.0449 85.391C92.1911 85.391 92.1911 85.2448 92.3373 85.0986L99.3549 88.0226ZM69.3839 54.2504C69.3839 51.9112 70.4073 49.7182 72.3079 48.4024L73.4775 47.5252C74.0623 47.0866 74.7933 46.648 75.5243 46.5018L82.1033 44.3088L83.2729 45.4784C85.1735 47.379 87.8051 48.5486 90.5829 48.5486H91.3139C93.7993 48.5486 95.6999 50.4492 95.6999 52.9346V59.075C95.2613 58.9288 94.6765 58.7826 94.2379 58.7826H85.0273C82.9805 58.7826 81.0799 57.7592 79.9103 56.151L79.4717 55.7124C78.0097 53.8118 75.5243 53.3732 73.4775 54.689L69.3839 57.3207V54.2504ZM72.4541 84.9524C72.6003 84.9524 72.6003 85.0987 72.7465 85.2449L77.1325 87.8764C77.7173 88.3151 78.4483 88.6074 79.0331 88.7536L72.1617 94.6016L65.4365 87.8764L72.4541 84.9524ZM81.0799 125.888H64.9979V109.806H62.0739V125.888H50.3779V103.227C50.3779 97.9643 53.4481 93.2859 58.2727 91.239L62.8049 89.1923L72.1617 98.549L81.0799 90.9466V125.888ZM78.7407 85.391L74.3547 82.7594C71.2845 80.8588 69.3839 77.6424 69.3839 73.9874V61.7066C69.3839 61.268 69.6763 60.8294 69.9687 60.537L75.0857 57.0282C75.6705 56.5896 76.5477 56.7358 77.1325 57.3207L77.5711 57.7592C79.3255 60.0984 82.1033 61.4142 85.0273 61.5604H94.2379C95.1151 61.5604 95.6999 62.1452 95.6999 63.0224V73.9874C95.6999 77.6424 93.7993 80.8588 90.7291 82.7594L86.3431 85.391C84.0039 86.8531 81.0799 86.8531 78.7407 85.391ZM91.6063 125.888H84.0039V91.0928L92.9221 98.6953L102.279 89.3385L106.811 91.3853C111.636 93.4321 114.706 98.2566 114.706 103.374V106.882H111.782V105.42C111.782 102.935 109.881 101.034 107.396 101.034H104.472C101.986 101.034 100.086 102.935 100.086 105.42V106.882H95.6999C93.2145 106.882 91.3139 108.783 91.3139 111.268V124.426C91.3139 124.865 91.4601 125.45 91.6063 125.888ZM108.858 105.42V106.882H103.01V105.42C103.01 104.543 103.595 103.958 104.472 103.958H107.396C108.273 103.958 108.858 104.543 108.858 105.42ZM117.63 124.426C117.63 125.304 117.045 125.888 116.168 125.888H95.6999C94.8227 125.888 94.2379 125.304 94.2379 124.426V117.116H104.472V120.04H107.396V117.116H117.63V124.426ZM117.63 114.192H94.2379V111.268C94.2379 110.391 94.8227 109.806 95.6999 109.806H116.168C117.045 109.806 117.63 110.391 117.63 111.268V114.192Z" fill="#062B4A"/>
</svg>
