<svg width="170" height="170" viewBox="0 0 170 170" fill="none" xmlns="http://www.w3.org/2000/svg">
<circle cx="85" cy="85" r="84.5" stroke="white"/>
<circle cx="85.0002" cy="84.9999" r="74.3" fill="white" stroke="white"/>
<g clip-path="url(#clip0)">
<path d="M69.2718 82.0254H60.348C59.644 82.0254 59.0732 82.5962 59.0732 83.3002V96.0483C59.0732 96.7524 59.644 97.3231 60.348 97.3231H69.2718C69.9758 97.3231 70.5466 96.7524 70.5466 96.0483V83.3002C70.5466 82.5962 69.9758 82.0254 69.2718 82.0254ZM67.997 94.7735H61.6228V84.575H67.997V94.7735Z" fill="#062B4A"/>
<path d="M90.9437 82.0254H82.0199C81.3159 82.0254 80.7451 82.5962 80.7451 83.3002V96.0483C80.7451 96.7524 81.3159 97.3231 82.0199 97.3231H90.9437C91.6477 97.3231 92.2185 96.7524 92.2185 96.0483V83.3002C92.2185 82.5962 91.6477 82.0254 90.9437 82.0254ZM89.6689 94.7735H83.2949V84.575H89.6689V94.7735Z" fill="#062B4A"/>
<path d="M90.9437 102.423H82.0199C81.3159 102.423 80.7451 102.993 80.7451 103.697V116.446C80.7451 117.15 81.3159 117.72 82.0199 117.72H90.9437C91.6477 117.72 92.2185 117.15 92.2185 116.446V103.697C92.2185 102.994 91.6477 102.423 90.9437 102.423ZM89.6689 115.171H83.2949V104.972H89.6689V115.171Z" fill="#062B4A"/>
<path d="M111.341 82.0254H102.417C101.713 82.0254 101.143 82.5962 101.143 83.3002V96.0483C101.143 96.7524 101.713 97.3231 102.417 97.3231H111.341C112.045 97.3231 112.616 96.7524 112.616 96.0483V83.3002C112.616 82.5962 112.045 82.0254 111.341 82.0254ZM110.066 94.7735H103.692V84.575H110.066V94.7735Z" fill="#062B4A"/>
<path d="M69.2718 102.423H60.348C59.644 102.423 59.0732 102.993 59.0732 103.697V116.446C59.0732 117.15 59.644 117.72 60.348 117.72H69.2718C69.9758 117.72 70.5466 117.15 70.5466 116.446V103.697C70.5466 102.994 69.9758 102.423 69.2718 102.423ZM67.997 115.171H61.6228V104.972H67.997V115.171Z" fill="#062B4A"/>
<path d="M111.341 102.423H102.417C101.713 102.423 101.143 102.993 101.143 103.697V116.446C101.143 117.15 101.713 117.72 102.417 117.72H111.341C112.045 117.72 112.616 117.15 112.616 116.446V103.697C112.616 102.994 112.045 102.423 111.341 102.423ZM110.066 115.171H103.692V104.972H110.066V115.171Z" fill="#062B4A"/>
<path d="M118.99 121.545V78.2015H120.265C120.969 78.2015 121.539 77.6307 121.539 76.9267V70.5527C121.539 69.8486 120.969 69.2779 120.265 69.2779H118.99V64.1787C118.99 63.4746 118.419 62.9039 117.715 62.9039H115.165V48.8808C115.165 48.1767 114.595 47.606 113.891 47.606H57.7987C57.0946 47.606 56.5239 48.1767 56.5239 48.8808V62.9037H53.9743C53.2702 62.9037 52.6995 63.4745 52.6995 64.1785V69.2777H51.4246C50.7206 69.2777 50.1498 69.8485 50.1498 70.5525V76.9265C50.1498 77.6306 50.7206 78.2013 51.4246 78.2013H52.6995V121.545H47.6001V124.095H53.9743H117.715H124.1V121.545H118.99V121.545ZM59.0735 50.1556H112.616V62.9037H59.0735V50.1556ZM55.2491 65.4533H57.7987H113.89H116.44V69.2777H55.2491V65.4533ZM116.44 121.545H55.2491V78.2015H116.44V121.545H116.44ZM53.9743 75.6519H52.6995V71.8275H53.9743H117.715H118.99V75.6519H117.715H53.9743Z" fill="#062B4A"/>
<path d="M83.8866 54.5174C83.6839 53.9993 83.3991 53.5518 83.0318 53.1751C82.6647 52.7984 82.2229 52.5029 81.7067 52.2888C81.1903 52.0747 80.6186 51.9675 79.9914 51.9675C79.3642 51.9675 78.7915 52.0736 78.2733 52.2859C77.7551 52.4982 77.3115 52.7936 76.9425 53.1723C76.5734 53.5509 76.2876 53.9993 76.0848 54.5176C75.8821 55.0357 75.7808 55.5989 75.7808 56.207C75.7808 56.8151 75.8821 57.3783 76.0848 57.8964C76.2876 58.4146 76.5734 58.863 76.9425 59.2418C77.3115 59.6204 77.7551 59.9158 78.2733 60.1281C78.7915 60.3404 79.3642 60.4465 79.9914 60.4465C80.6186 60.4465 81.1903 60.3404 81.7067 60.1281C82.223 59.9159 82.6647 59.6204 83.0318 59.2418C83.3989 58.8631 83.6839 58.4147 83.8866 57.8964C84.0894 57.3783 84.1907 56.8151 84.1907 56.207C84.1907 55.5987 84.0892 55.0356 83.8866 54.5174ZM82.4265 57.4316C82.3061 57.793 82.1329 58.099 81.9073 58.3495C81.6817 58.6 81.4072 58.7922 81.0841 58.926C80.7609 59.0599 80.3966 59.1269 79.9912 59.1269C79.5859 59.1269 79.2206 59.0599 78.8956 58.926C78.5705 58.7922 78.2942 58.6 78.0666 58.3495C77.8391 58.0989 77.6641 57.793 77.5418 57.4316C77.4194 57.0702 77.3581 56.662 77.3581 56.2069C77.3581 55.7517 77.4194 55.3435 77.5418 54.9821C77.6641 54.6207 77.8391 54.3138 78.0666 54.0614C78.2942 53.8091 78.5705 53.6159 78.8956 53.482C79.2207 53.3481 79.5859 53.2812 79.9912 53.2812C80.3966 53.2812 80.7609 53.3481 81.0841 53.482C81.4072 53.6159 81.6816 53.8091 81.9073 54.0614C82.1329 54.3138 82.306 54.6207 82.4265 54.9821C82.547 55.3435 82.6072 55.7517 82.6072 56.2069C82.6072 56.662 82.5471 57.0702 82.4265 57.4316Z" fill="#062B4A"/>
<path d="M73.0041 52.0588V55.627H69.1147V52.0588H67.5601V60.354H69.1147V56.7285H73.0041V60.354H74.5588V52.0588H73.0041Z" fill="#062B4A"/>
<path d="M99.8978 59.0804V52.0588H98.3545V60.354H103.219V59.0804H99.8978Z" fill="#062B4A"/>
<path d="M84.2593 52.0588V53.3266H86.7663V60.354H88.3094V53.3266H90.8048V52.0588H84.2593Z" fill="#062B4A"/>
<path d="M97.0175 53.2864V52.0588H91.7856V60.354H97.0175V59.1206H93.3403V56.7743H96.2373V55.5868H93.3403V53.2864H97.0175Z" fill="#062B4A"/>
</g>
<defs>
<clipPath id="clip0">
<rect width="76.5" height="76.5" fill="white" transform="translate(47.6001 47.6001)"/>
</clipPath>
</defs>
</svg>
