<svg width="50" height="50" viewBox="0 0 50 50" fill="none" xmlns="http://www.w3.org/2000/svg">
<circle cx="25" cy="25" r="24.5" stroke="#072B4B"/>
<path d="M36.8848 18.213L25.9864 12.9517C25.8898 12.9051 25.7772 12.9051 25.6807 12.9517L14.7822 18.213C14.6607 18.2716 14.5835 18.3947 14.5835 18.5296V31.3071C14.5835 31.442 14.6607 31.5651 14.7822 31.6237L25.6806 36.885C25.7289 36.9083 25.7812 36.92 25.8335 36.92C25.8858 36.92 25.938 36.9083 25.9864 36.885L36.8848 31.6237C37.0063 31.5651 37.0835 31.442 37.0835 31.3071V18.5297C37.0835 18.3947 37.0062 18.2717 36.8848 18.213ZM25.8335 13.6588L35.9231 18.5296L32.9984 19.9416C32.9798 19.9275 32.9603 19.9145 32.9388 19.9041L22.9177 15.0664L25.8335 13.6588ZM22.1236 15.464L32.1986 20.3277L30.1351 21.3239L20.0643 16.4621L22.1236 15.464ZM32.4343 20.9947V24.6771L30.5069 25.6076V21.9252L32.4343 20.9947ZM36.3803 31.0864L26.1851 36.0081V24.0116L28.617 22.8376C28.7918 22.7532 28.8652 22.543 28.7807 22.3681C28.6963 22.1933 28.4861 22.1198 28.3112 22.2043L25.8335 23.4005L24.8586 22.9298C24.6836 22.8453 24.4735 22.9187 24.389 23.0936C24.3046 23.2684 24.3779 23.4786 24.5528 23.5631L25.4819 24.0116V36.0081L15.2867 31.0863V19.0898L23.0503 22.8377C23.0995 22.8616 23.1516 22.8728 23.2028 22.8728C23.3336 22.8728 23.4591 22.7996 23.5197 22.674C23.6042 22.4991 23.5308 22.2889 23.356 22.2045L15.7439 18.5296L19.2367 16.8434L29.7988 21.9423C29.8004 21.9445 29.8021 21.9464 29.8037 21.9485V26.1678C29.8037 26.2888 29.8659 26.4013 29.9684 26.4656C30.0253 26.5014 30.0902 26.5194 30.1553 26.5194C30.2075 26.5194 30.2597 26.5078 30.3082 26.4844L32.9388 25.2145C33.0603 25.1558 33.1376 25.0328 33.1376 24.8978V20.6553L36.3803 19.0899V31.0864Z" fill="#062B4A" stroke="#062B4A" stroke-width="0.2"/>
</svg>
