<svg width="44" height="44" viewBox="0 0 44 44" fill="none" xmlns="http://www.w3.org/2000/svg">
<circle cx="22" cy="22" r="21.5" fill="white" stroke="#072B4B"/>
<path d="M33 20.4355H32.1845L30.9691 21.075C30.8323 20.9995 30.69 20.9355 30.5366 20.8971L29.0077 20.5145V20.3407C29.6841 19.8686 30.0968 19.0888 30.0968 18.2581V17.6237C30.0968 16.2139 28.9921 15.0341 27.6344 14.993C27.5655 14.9912 27.4976 14.9937 27.4294 14.9971L27.8258 14.0691L25.9041 12.1479L24.7712 12.8852C24.3408 12.6428 23.8856 12.4541 23.4128 12.3217L23.133 11H20.3673L20.0875 12.3221C19.6148 12.4544 19.1592 12.6432 18.7291 12.8856L17.5963 12.1482L15.6762 14.0684L16.0658 14.9971C16.0509 14.9964 16.0368 14.9937 16.0219 14.9934C15.3269 14.9732 14.6723 15.2267 14.1751 15.7094C13.6772 16.1917 13.4032 16.8391 13.4032 17.5323V18.2581C13.4032 19.0888 13.8156 19.8683 14.4919 20.3403V20.5145L13.4947 20.7638L11.6871 19.7097H10.5V27.2295L14.0702 28.4194H14.7655L14.8524 28.1153L15.9467 28.7722C15.9646 29.3672 16.4418 29.846 17.0363 29.8669C17.0572 30.4589 17.533 30.9347 18.125 30.9556C18.146 31.5476 18.6217 32.0234 19.2138 32.0443C19.2354 32.6502 19.7315 33.1371 20.3423 33.1371C20.5691 33.1371 20.7915 33.0664 20.9785 32.9404L21.2999 33.2243C21.5014 33.4017 21.7608 33.5 22.0302 33.5H22.0973C22.7012 33.5 23.1926 33.0118 23.2002 32.4099C23.7975 32.4023 24.2813 31.9185 24.2889 31.3212C24.8866 31.3135 25.3707 30.8291 25.3776 30.2314C25.9808 30.2172 26.4677 29.7244 26.4677 29.1179C26.4677 29.0814 26.466 29.0454 26.4622 29.0091L33 25.7405V20.4355ZM29.371 17.6237V18.2581C29.371 18.9022 29.0229 19.504 28.4626 19.8284L28.2812 19.9333L28.2826 21.0817L30.0957 21.5346L26.1048 23.6352V22.6576C26.1048 22.1697 25.9078 21.723 25.5851 21.3929L26.8306 21.0817V19.9324L26.6495 19.8277C26.0896 19.504 25.7419 18.9022 25.7419 18.2581V17.5323C25.7419 17.0373 25.9376 16.5745 26.2932 16.2298C26.6485 15.8854 27.1198 15.6997 27.6126 15.7188C28.5821 15.7479 29.371 16.6025 29.371 17.6237ZM22.2972 23.3499L20.6544 22.8248C19.9057 22.5849 19.0954 22.5491 18.329 22.7189L18.121 22.7649V22.6576C18.121 22.1571 18.4603 21.7227 18.9455 21.6011L21.0242 21.0817V19.9324L20.8431 19.8277C20.2831 19.504 19.9355 18.9022 19.9355 18.2581V17.5323C19.9355 17.0373 20.1311 16.5745 20.4867 16.2298C20.842 15.8854 21.3164 15.6997 21.8062 15.7188C22.7756 15.7479 23.5645 16.6025 23.5645 17.6237V18.2581C23.5645 18.9022 23.2165 19.504 22.6562 19.8284L22.4747 19.9333L22.4762 21.0817L24.5545 21.6011C25.0397 21.7227 25.379 22.1571 25.379 22.6576V24.0174L25.2894 24.0645H25.067L22.8359 23.427C22.6601 23.3772 22.479 23.3568 22.2972 23.3499ZM18.2023 16.4315C18.8838 15.111 20.2555 14.2661 21.75 14.2661C23.2303 14.2661 24.5962 15.0997 25.2828 16.4023C25.11 16.7487 25.0161 17.1323 25.0161 17.5323V18.2581C25.0161 19.0888 25.4285 19.8683 26.1048 20.3403V20.5145L24.6532 20.8779L23.2013 20.5145V20.3407C23.8776 19.8686 24.2903 19.0888 24.2903 18.2581V17.6237C24.2903 16.2139 23.1857 15.0341 21.828 14.993C21.1333 14.9726 20.4784 15.2264 19.9812 15.7091C19.4836 16.1917 19.2097 16.8391 19.2097 17.5323V18.2581C19.2097 19.0888 19.622 19.8683 20.2984 20.3403V20.5145L18.8468 20.8779L17.3948 20.5145V20.3407C18.0712 19.8686 18.4839 19.0888 18.4839 18.2581V17.6237C18.4839 17.1966 18.3811 16.7912 18.2023 16.4315ZM16.5333 14.2367L17.6927 13.0773L18.7132 13.7414L18.9084 13.6217C19.3977 13.3218 19.9264 13.1023 20.4798 12.9699L20.7031 12.9164L20.9556 11.7258H22.5447L22.7965 12.9161L23.0198 12.9694C23.5732 13.1019 24.102 13.3215 24.5912 13.6213L24.7865 13.7411L25.807 13.0769L26.965 14.2353L26.5533 15.1991C26.2732 15.3196 26.0134 15.4892 25.7873 15.7084C25.7724 15.7229 25.7597 15.7385 25.7451 15.7534C24.8901 14.3942 23.3786 13.5403 21.75 13.5403C20.1097 13.5403 18.5939 14.4022 17.7411 15.7752C17.5128 15.5363 17.2414 15.3428 16.9405 15.2076L16.5333 14.2367ZM15.2177 21.0817V19.9324L15.0366 19.8277C14.4767 19.504 14.129 18.9022 14.129 18.2581V17.5323C14.129 17.0373 14.3247 16.5745 14.6803 16.2298C15.0356 15.8854 15.508 15.6997 15.9997 15.7188C16.9692 15.7479 17.7581 16.6025 17.7581 17.6237V18.2581C17.7581 18.9022 17.41 19.504 16.8497 19.8284L16.6683 19.9333L16.6697 21.0817L17.9149 21.3929C17.5922 21.723 17.3952 22.1697 17.3952 22.6576V22.9264L16.2632 23.178L16.2926 23.0752L16.3065 22.4045L14.3925 21.288L15.2177 21.0817ZM11.2258 20.4355H11.4904L14.1003 21.9578L12.7834 27.2254L11.2258 26.706V20.4355ZM14.1879 27.6935L13.4736 27.4556L14.7529 22.3386L15.5806 22.8213V22.925L14.2183 27.6935H14.1879ZM16.6694 28.7383C16.6694 28.6313 16.7126 28.5264 16.7884 28.4505L17.4263 27.8126C17.5022 27.7368 17.6071 27.6935 17.7141 27.6935C17.9385 27.6935 18.121 27.8761 18.121 28.1004C18.121 28.2074 18.0777 28.3123 18.0019 28.3882L17.364 29.0261C17.2881 29.1019 17.1832 29.1452 17.0762 29.1452C16.8519 29.1452 16.6694 28.9626 16.6694 28.7383ZM17.7581 29.827C17.7581 29.72 17.8013 29.6151 17.8771 29.5393L18.5151 28.9013C18.5909 28.8255 18.6958 28.7823 18.8028 28.7823C19.0272 28.7823 19.2097 28.9648 19.2097 29.1891C19.2097 29.2961 19.1664 29.401 19.0906 29.4769L18.4527 30.1148C18.3768 30.1906 18.2719 30.2339 18.1649 30.2339C17.9406 30.2339 17.7581 30.0514 17.7581 29.827ZM18.8468 30.9157C18.8468 30.8087 18.89 30.7038 18.9659 30.628L19.6038 29.99C19.6796 29.9142 19.7845 29.871 19.8915 29.871C20.1159 29.871 20.2984 30.0535 20.2984 30.2778C20.2984 30.3848 20.2552 30.4897 20.1793 30.5656L19.5414 31.2035C19.4656 31.2793 19.3607 31.3226 19.2536 31.3226C19.0293 31.3226 18.8468 31.1401 18.8468 30.9157ZM20.3423 32.4113C20.118 32.4113 19.9355 32.2288 19.9355 32.0044C19.9355 31.8974 19.9787 31.7925 20.0546 31.7167L20.6925 31.0788C20.7683 31.0029 20.8732 30.9597 20.9802 30.9597C21.2046 30.9597 21.3871 31.1422 21.3871 31.3665C21.3871 31.4736 21.3439 31.5785 21.268 31.6543L20.6301 32.2922C20.5543 32.3681 20.4494 32.4113 20.3423 32.4113ZM22.0973 32.7742H22.0302C21.9377 32.7742 21.8491 32.7405 21.7801 32.6794L21.5087 32.44L21.7812 32.1675C21.8785 32.0702 21.954 31.9545 22.0098 31.8303L22.3397 32.1049C22.426 32.1769 22.4758 32.2828 22.4758 32.3957C22.4758 32.6044 22.3061 32.7742 22.0973 32.7742ZM25.3517 29.5081H25.289C25.1979 29.5081 25.109 29.4758 25.0393 29.4173L23.0714 27.7774L22.6064 28.3352L24.5175 29.9275C24.6034 29.9994 24.6532 30.1054 24.6532 30.2183C24.6532 30.427 24.4835 30.5968 24.2747 30.5968H24.1955C24.1075 30.5968 24.0213 30.5656 23.9535 30.5089L21.9823 28.8664L21.5173 29.4242L23.4284 31.0167C23.5147 31.0881 23.5645 31.1941 23.5645 31.307C23.5645 31.5157 23.3948 31.6855 23.186 31.6855C23.0467 31.6855 22.911 31.636 22.8042 31.5473L21.9942 30.8721C21.8157 30.5075 21.4491 30.2532 21.0198 30.2379C20.9989 29.6459 20.5231 29.1701 19.9311 29.1492C19.9101 28.5572 19.4344 28.0814 18.8423 28.0605C18.8211 27.4547 18.3249 26.9677 17.7141 26.9677C17.4159 26.9677 17.124 27.0886 16.9132 27.2995L16.2753 27.9374C16.2372 27.9755 16.2056 28.0187 16.1736 28.0616L15.0588 27.3927L16.036 23.9724L18.486 23.4277C19.1287 23.284 19.8063 23.3151 20.4331 23.5157L20.9677 23.6867L19.1553 24.5929C18.7412 24.8004 18.4839 25.217 18.4839 25.6802V25.752C18.4839 26.4223 19.0293 26.9677 19.6996 26.9677C19.9199 26.9677 20.1366 26.9078 20.325 26.7943L21.6763 25.9839C21.9478 25.8213 22.3121 25.8569 22.5465 26.0677L25.6128 28.8273C25.6948 28.9017 25.7419 29.0073 25.7419 29.1179C25.7419 29.3332 25.567 29.5081 25.3517 29.5081ZM32.2742 25.2918L26.1603 28.349C26.1405 28.3279 26.1197 28.3079 26.0979 28.2884L23.0322 25.5289C22.7636 25.2865 22.4163 25.1532 22.0544 25.1532C21.7899 25.1532 21.5301 25.2252 21.3026 25.3616L19.9507 26.1723C19.8749 26.218 19.7882 26.2419 19.6996 26.2419C19.4292 26.2419 19.2097 26.0224 19.2097 25.752V25.6802C19.2097 25.4933 19.3135 25.3256 19.4804 25.2422L21.5048 24.23C21.8512 24.0565 22.2625 24.0177 22.6358 24.1251L24.9164 24.7765L25.4687 24.7903L32.2742 21.2084V25.2918Z" fill="#062B4A"/>
</svg>
