<svg width="50" height="50" viewBox="0 0 50 50" fill="none" xmlns="http://www.w3.org/2000/svg">
<circle cx="25" cy="25" r="24.5" stroke="white"/>
<circle cx="25" cy="24.9999" r="21.5" stroke="#072B4B"/>
<path d="M34.597 31.5221V30.4041C34.597 28.5121 33.479 26.8351 31.759 26.0611L27.975 24.3841C28.62 23.6961 29.007 22.7501 29.007 21.8041L30.039 21.2881C30.469 21.0731 30.77 20.6431 30.77 20.1271V19.8261C30.77 19.0951 30.211 18.5361 29.48 18.5361H29.05V15.5261C29.05 14.3221 28.104 13.3761 26.9 13.3761H26.685C26.126 13.3761 25.567 13.1611 25.18 12.7311L24.449 12.0001L21.998 12.8171C21.697 12.9031 21.396 13.0751 21.138 13.2471L20.794 13.5051C19.977 14.1071 19.547 15.0101 19.547 15.9561V18.5361H19.117C18.386 18.5361 17.827 19.0951 17.827 19.8261V20.1701C17.827 20.6431 18.085 21.1161 18.558 21.3311L19.59 21.8471C19.59 22.7931 19.977 23.6961 20.622 24.4271L16.838 26.1041C15.118 26.8781 14 28.5551 14 30.4471V37.8861H34.21C34.941 37.8861 35.5 37.3271 35.5 36.5961V32.7261C35.457 32.1671 35.113 31.6941 34.597 31.5221ZM29.007 19.3961H29.437C29.695 19.3961 29.867 19.5681 29.867 19.8261V20.1701C29.867 20.3421 29.781 20.4711 29.609 20.5571L29.007 20.8581V19.3961ZM19.547 20.8581L18.945 20.5571C18.816 20.4711 18.687 20.3421 18.687 20.1701V19.8261C18.687 19.5681 18.859 19.3961 19.117 19.3961H19.547V20.8581ZM29.222 25.8891L27.244 27.8671L25.223 26.1471C25.438 26.0611 25.61 25.9751 25.782 25.8891L27.072 25.1151C27.115 25.1151 27.115 25.0721 27.158 25.0291L29.222 25.8891ZM20.407 15.9561C20.407 15.2681 20.708 14.6231 21.267 14.2361L21.611 13.9781C21.783 13.8491 21.998 13.7201 22.213 13.6771L24.148 13.0321L24.492 13.3761C25.051 13.9351 25.825 14.2791 26.642 14.2791H26.857C27.588 14.2791 28.147 14.8381 28.147 15.5691V17.3751C28.018 17.3321 27.846 17.2891 27.717 17.2891H25.008C24.406 17.2891 23.847 16.9881 23.503 16.5151L23.374 16.3861C22.944 15.8271 22.213 15.6981 21.611 16.0851L20.407 16.8591V15.9561ZM21.31 24.9861C21.353 24.9861 21.353 25.0291 21.396 25.0721L22.686 25.8461C22.858 25.9751 23.073 26.0611 23.245 26.1041L21.224 27.8241L19.246 25.8461L21.31 24.9861ZM23.847 37.0261H19.117V32.2961H18.257V37.0261H14.817V30.3611C14.817 28.8131 15.72 27.4371 17.139 26.8351L18.472 26.2331L21.224 28.9851L23.847 26.7491V37.0261ZM23.159 25.1151L21.869 24.3411C20.966 23.7821 20.407 22.8361 20.407 21.7611V18.1491C20.407 18.0201 20.493 17.8911 20.579 17.8051L22.084 16.7731C22.256 16.6441 22.514 16.6871 22.686 16.8591L22.815 16.9881C23.331 17.6761 24.148 18.0631 25.008 18.1061H27.717C27.975 18.1061 28.147 18.2781 28.147 18.5361V21.7611C28.147 22.8361 27.588 23.7821 26.685 24.3411L25.395 25.1151C24.707 25.5451 23.847 25.5451 23.159 25.1151ZM26.943 37.0261H24.707V26.7921L27.33 29.0281L30.082 26.2761L31.415 26.8781C32.834 27.4801 33.737 28.8991 33.737 30.4041V31.4361H32.877V31.0061C32.877 30.2751 32.318 29.7161 31.587 29.7161H30.727C29.996 29.7161 29.437 30.2751 29.437 31.0061V31.4361H28.147C27.416 31.4361 26.857 31.9951 26.857 32.7261V36.5961C26.857 36.7251 26.9 36.8971 26.943 37.0261ZM32.017 31.0061V31.4361H30.297V31.0061C30.297 30.7481 30.469 30.5761 30.727 30.5761H31.587C31.845 30.5761 32.017 30.7481 32.017 31.0061ZM34.597 36.5961C34.597 36.8541 34.425 37.0261 34.167 37.0261H28.147C27.889 37.0261 27.717 36.8541 27.717 36.5961V34.4461H30.727V35.3061H31.587V34.4461H34.597V36.5961ZM34.597 33.5861H27.717V32.7261C27.717 32.4681 27.889 32.2961 28.147 32.2961H34.167C34.425 32.2961 34.597 32.4681 34.597 32.7261V33.5861Z" fill="#062B4A"/>
</svg>
