<svg width="50" height="50" viewBox="0 0 50 50" fill="none" xmlns="http://www.w3.org/2000/svg">
<circle cx="25" cy="25" r="24.5" stroke="#072B4B"/>
<path d="M34.997 35.7488V23.0006H35.3719C35.579 23.0006 35.7469 22.8328 35.7469 22.6257V20.751C35.7469 20.5439 35.579 20.376 35.3719 20.376H34.997V18.8763C34.997 18.6692 34.8291 18.5013 34.622 18.5013H33.8722V14.3769C33.8722 14.1698 33.7043 14.002 33.4972 14.002H16.9996C16.7925 14.002 16.6246 14.1698 16.6246 14.3769V18.5013H15.8748C15.6677 18.5013 15.4998 18.6692 15.4998 18.8762V20.376H15.1249C14.9178 20.376 14.7499 20.5439 14.7499 20.7509V22.6257C14.7499 22.8327 14.9178 23.0006 15.1249 23.0006H15.4998V35.7487H14V36.4986H15.8748H34.622H36.5V35.7487H34.997V35.7488ZM17.3745 14.7518H33.1222V18.5013H17.3745V14.7518ZM16.2497 19.2512H16.9996H33.4972H34.2471V20.376H16.2497V19.2512ZM34.2471 35.7488H16.2497V23.0006H34.2471V35.7488H34.2471ZM15.8748 22.2508H15.4998V21.1259H15.8748H34.622H34.997V22.2508H34.622H15.8748Z" fill="#062B4A"/>
</svg>
